<svg width="128" height="128" viewBox="0 0 128 128" fill="none" xmlns="http://www.w3.org/2000/svg">
  <defs>
    <linearGradient id="bg" x1="18" y1="14" x2="112" y2="116" gradientUnits="userSpaceOnUse">
      <stop stop-color="#064E3B"/>
      <stop offset="1" stop-color="#003527"/>
    </linearGradient>
  </defs>

  <rect x="8" y="8" width="112" height="112" rx="28" fill="url(#bg)"/>

  <path d="M78 38C66.3 38 57 47.2 57 58.8C57 70.5 66.3 79.8 78 79.8C82.9 79.8 87.4 78.2 90.9 75.3C87.2 80.5 80.9 84 73.8 84C62.6 84 53.5 74.9 53.5 63.7C53.5 52.5 62.6 43.4 73.8 43.4C80.9 43.4 87.2 46.9 90.9 52.1C87.4 49.2 82.9 47.6 78 47.6C72 47.6 67.2 52.5 67.2 58.5C67.2 64.4 72 69.3 78 69.3C82.8 69.3 86.8 66.2 88.2 61.9" fill="#B0F0D6"/>

  <circle cx="94" cy="50" r="3.5" fill="#D4A843"/>

  <rect x="24" y="87" width="80" height="16" rx="8" fill="rgba(255,255,255,0.08)"/>
  <circle cx="35" cy="95" r="3" fill="#B0F0D6"/>
  <circle cx="50" cy="95" r="3" fill="#B0F0D6"/>
  <circle cx="64" cy="95" r="3" fill="#B0F0D6"/>
  <circle cx="78" cy="95" r="3" fill="#B0F0D6"/>
  <circle cx="92" cy="95" r="3" fill="#B0F0D6"/>
</svg>
